<svg width="1440" height="1024" viewBox="0 0 1440 1024" fill="none" xmlns="http://www.w3.org/2000/svg">
<g clip-path="url(#clip0)">
<path d="M470.902 357.338C447.208 321.549 457.012 273.329 492.801 249.635L1090.52 -146.098C1126.31 -169.792 1174.53 -159.988 1198.23 -124.199V-124.199C1221.92 -88.411 1212.12 -40.1908 1176.33 -16.4965L578.605 379.236C542.817 402.93 494.597 393.126 470.902 357.338V357.338Z" fill="#075D42"/>
<path d="M-96.2981 534.992C-117.273 502.673 -108.076 459.47 -75.7575 438.496L59.424 350.764C91.743 329.79 134.946 338.986 155.921 371.305V371.305C176.895 403.624 167.699 446.827 135.38 467.802L0.198439 555.533C-32.1205 576.508 -75.3235 567.311 -96.2981 534.992V534.992Z" fill="#FFE8B0"/>
<path d="M855.077 652.955C832.085 617.895 841.867 570.835 876.926 547.843L1287.42 278.631C1322.48 255.639 1369.54 265.421 1392.54 300.48V300.48C1415.53 335.54 1405.75 382.6 1370.69 405.592L960.189 674.803C925.129 697.796 878.069 688.014 855.077 652.955V652.955Z" fill="#08654A"/>
<path d="M967.131 1129.49C943.437 1093.7 953.241 1045.48 989.03 1021.79L1448.99 717.265C1484.78 693.57 1533 703.375 1556.69 739.163V739.163C1580.38 774.951 1570.58 823.172 1534.79 846.866L1074.83 1151.39C1039.05 1175.08 990.826 1165.28 967.131 1129.49V1129.49Z" fill="#075D42"/>
<path d="M-95.0031 361.758C-118.697 325.97 -108.893 277.75 -73.1047 254.056L274.524 23.9023C310.312 0.208037 358.533 10.0122 382.227 45.8006V45.8006C405.921 81.589 396.117 129.809 360.329 153.503L12.6999 383.657C-23.0885 407.351 -71.3088 397.547 -95.0031 361.758V361.758Z" fill="#075D42"/>
<path d="M72.9023 430.758C49.208 394.97 59.0122 346.75 94.8006 323.056L442.429 92.9023C478.218 69.208 526.438 79.0122 550.132 114.801V114.801C573.827 150.589 564.022 198.809 528.234 222.503L180.605 452.657C144.817 476.351 96.5966 466.547 72.9023 430.758V430.758Z" fill="#075D42"/>
<path d="M-95.0031 361.758C-118.697 325.97 -108.893 277.75 -73.1047 254.056L274.524 23.9023C310.312 0.208037 358.533 10.0122 382.227 45.8006V45.8006C405.921 81.589 396.117 129.809 360.329 153.503L12.6999 383.657C-23.0885 407.351 -71.3088 397.547 -95.0031 361.758V361.758Z" fill="#075D42"/>
<path d="M1176.57 78.3542C1153.06 43.0063 1162.66 -4.71002 1198 -28.2231L1323.4 -111.639C1358.75 -135.152 1406.47 -125.558 1429.98 -90.2098V-90.2098C1453.49 -54.8619 1443.9 -7.14562 1408.55 16.3675L1283.15 99.7831C1247.8 123.296 1200.09 113.702 1176.57 78.3542V78.3542Z" fill="#FFE8B0"/>
<path d="M686.531 1126.05C662.801 1089.15 673.484 1039.99 710.391 1016.26L1085.68 774.967C1122.59 751.237 1171.74 761.919 1195.47 798.827V798.827C1219.2 835.734 1208.52 884.89 1171.61 908.62L796.324 1149.91C759.417 1173.64 710.261 1162.96 686.531 1126.05V1126.05Z" fill="#0F7658"/>
<path d="M317.631 638.954C294.639 603.895 304.421 556.835 339.48 533.843L933.395 144.343C968.455 121.351 1015.51 131.133 1038.51 166.192V166.192C1061.5 201.251 1051.72 248.311 1016.66 271.304L422.743 660.803C387.684 683.796 340.624 674.014 317.631 638.954V638.954Z" fill="#08654A"/>
<path d="M1047.75 342.036C1024.02 305.128 1034.7 255.972 1071.61 232.243L1440.72 -5.07739C1477.62 -28.8072 1526.78 -18.1249 1550.51 18.7824V18.7824C1574.24 55.6896 1563.56 104.846 1526.65 128.576L1157.54 365.895C1120.64 389.625 1071.48 378.943 1047.75 342.036V342.036Z" fill="#0F7658"/>
<path d="M96.2099 1134.82C72.4801 1097.92 83.1624 1048.76 120.07 1025.03L401.678 843.967C438.585 820.237 487.741 830.919 511.471 867.826V867.826C535.201 904.734 524.519 953.89 487.612 977.619L206.003 1158.68C169.096 1182.41 119.94 1171.73 96.2099 1134.82V1134.82Z" fill="#0F7658"/>
<path d="M841.967 840.013C818.237 803.106 828.919 753.95 865.826 730.22L1483.68 332.967C1520.59 309.237 1569.74 319.919 1593.47 356.826V356.826C1617.2 393.734 1606.52 442.89 1569.61 466.62L951.76 863.873C914.853 887.603 865.697 876.921 841.967 840.013V840.013Z" fill="#0F7658"/>
<path d="M1243.63 1125.6C1220.12 1090.25 1229.71 1042.53 1265.06 1019.02L1442.76 900.816C1478.1 877.303 1525.82 886.897 1549.33 922.245V922.245C1572.85 957.593 1563.25 1005.31 1527.9 1028.82L1350.21 1147.02C1314.86 1170.54 1267.14 1160.94 1243.63 1125.6V1125.6Z" fill="#FFE8B0"/>
<path d="M1272.27 375.577C1247.56 336.131 1259.51 284.127 1298.96 259.422L1399.96 196.163C1439.41 171.459 1491.41 183.408 1516.12 222.854V222.854C1540.82 262.3 1528.87 314.305 1489.43 339.009L1388.42 402.268C1348.98 426.973 1296.97 415.023 1272.27 375.577V375.577Z" fill="#0F7658"/>
<path d="M441.314 186.345C417.944 149.032 429.248 99.8393 466.561 76.4701L838.876 -156.71C876.189 -180.079 925.382 -168.775 948.751 -131.462V-131.462C972.12 -94.1491 960.816 -44.9564 923.503 -21.5872L551.189 211.593C513.875 234.962 464.683 223.658 441.314 186.345V186.345Z" fill="#10805F"/>
<path d="M796.292 316.738C772.359 278.524 783.935 228.143 822.149 204.21L1191.2 -26.9271C1229.42 -50.8605 1279.8 -39.2837 1303.73 -1.06976V-1.06976C1327.66 37.1442 1316.09 87.5246 1277.87 111.458L908.82 342.595C870.606 366.528 820.225 354.952 796.292 316.738V316.738Z" fill="#10805F"/>
<path d="M-108.252 716.059C-131.621 678.746 -120.317 629.553 -83.0042 606.184L143.517 464.314C180.83 440.944 230.023 452.248 253.392 489.561V489.561C276.761 526.875 265.457 576.067 228.144 599.436L1.62308 741.306C-35.69 764.676 -84.8828 753.372 -108.252 716.059V716.059Z" fill="#10805F"/>
<path d="M-239.686 1157.35C-263.056 1120.03 -251.752 1070.84 -214.439 1047.47L408.517 657.314C445.83 633.944 495.023 645.248 518.392 682.561V682.561C541.761 719.874 530.457 769.067 493.144 792.436L-129.811 1182.59C-167.124 1205.96 -216.317 1194.66 -239.686 1157.35V1157.35Z" fill="#10805F"/>
<path d="M-239.686 1157.35C-263.056 1120.03 -251.752 1070.84 -214.439 1047.47L408.517 657.314C445.83 633.944 495.023 645.248 518.392 682.561V682.561C541.761 719.874 530.457 769.067 493.144 792.436L-129.811 1182.59C-167.124 1205.96 -216.317 1194.66 -239.686 1157.35V1157.35Z" fill="#10805F"/>
<path d="M183.091 173.41C158.74 134.573 170.484 83.3495 209.321 58.9989L531.506 -143.009C570.344 -167.359 621.567 -155.616 645.918 -116.779V-116.779C670.268 -77.9414 658.525 -26.7177 619.688 -2.3671L297.502 199.641C258.665 223.991 207.441 212.247 183.091 173.41V173.41Z" fill="#FFE8B0"/>
<path d="M-95.4625 888.933C-118.015 852.964 -107.138 805.524 -71.1696 782.972L96.5165 677.834C132.485 655.282 179.926 666.158 202.478 702.127V702.127C225.03 738.096 214.153 785.536 178.185 808.088L10.4986 913.226C-25.47 935.778 -72.9104 924.902 -95.4625 888.933V888.933Z" fill="#FFE8B0"/>
<path d="M1093.57 864.657C1070.06 829.309 1079.66 781.593 1115 758.08L1433.24 546.392C1468.59 522.879 1516.3 532.473 1539.82 567.821V567.821C1563.33 603.168 1553.74 650.885 1518.39 674.398L1200.15 886.086C1164.8 909.599 1117.09 900.005 1093.57 864.657V864.657Z" fill="#FFE8B0"/>
<circle cx="660.5" cy="774.5" r="76.5" fill="#10805F"/>
<circle cx="161.5" cy="376.5" r="32.5" fill="#FFE8B0"/>
<circle cx="235" cy="338" r="20" fill="#FFE8B0"/>
<circle cx="295.5" cy="301.5" r="11.5" fill="#FFE8B0"/>
<circle cx="1164" cy="1001" r="7" fill="#FFE8B0"/>
<circle cx="1253" cy="945" r="7" fill="#FFE8B0"/>
<circle cx="1342" cy="889" r="7" fill="#FFE8B0"/>
<circle cx="1186" cy="987" r="7" fill="#FFE8B0"/>
<circle cx="1275" cy="931" r="7" fill="#FFE8B0"/>
<circle cx="1364" cy="875" r="7" fill="#FFE8B0"/>
<circle cx="1208" cy="973" r="7" fill="#FFE8B0"/>
<circle cx="1297" cy="917" r="7" fill="#FFE8B0"/>
<circle cx="1386" cy="861" r="7" fill="#FFE8B0"/>
<circle cx="1231" cy="959" r="7" fill="#FFE8B0"/>
<circle cx="1320" cy="903" r="7" fill="#FFE8B0"/>
<circle cx="1409" cy="847" r="7" fill="#FFE8B0"/>
</g>
<defs>
<clipPath id="clip0">
<rect width="1440" height="1024" fill="white"/>
</clipPath>
</defs>
</svg>
